<?xml version="1.0" standalone="no"?>
<!DOCTYPE svg PUBLIC "-//W3C//DTD SVG 20010904//EN"
 "http://www.w3.org/TR/2001/REC-SVG-20010904/DTD/svg10.dtd">
<svg version="1.0" xmlns="http://www.w3.org/2000/svg"
 width="204.000000pt" height="200.000000pt" viewBox="0 0 204.000000 200.000000"
 preserveAspectRatio="xMidYMid meet">

<g transform="translate(0.000000,200.000000) scale(0.100000,-0.100000)"
fill="#000000" stroke="none">
<path d="M890 1989 c-101 -12 -187 -38 -287 -84 -246 -115 -430 -307 -527
-550 -45 -113 -61 -307 -42 -506 11 -115 21 -171 40 -222 58 -153 127 -257
251 -383 147 -150 288 -219 479 -234 350 -29 541 10 770 160 149 97 268 237
352 414 129 274 125 584 -14 861 -196 393 -583 599 -1022 544z m575 -279 c54
-37 125 -124 160 -195 104 -213 58 -519 -116 -770 -65 -95 -198 -221 -270
-257 -60 -31 -195 -68 -245 -68 l-33 0 6 -90 6 -90 -61 0 -61 0 -3 86 -3 87
-65 21 c-132 45 -243 133 -329 262 -53 79 -83 149 -109 257 -16 67 -16 70 3
83 10 8 34 14 52 14 30 0 33 -3 33 -29 0 -53 30 -175 55 -226 45 -92 168 -200
288 -254 l67 -30 0 47 0 48 -47 13 c-148 39 -271 191 -276 341 l-2 55 60 0 60
0 -4 241 c-4 279 -3 283 84 362 127 116 327 104 419 -26 26 -37 30 -53 38
-159 13 -164 3 -378 -20 -448 -11 -30 -16 -55 -12 -55 9 0 27 38 34 73 6 25
10 27 57 27 l51 0 -4 -102 c-3 -80 -9 -112 -25 -143 -27 -52 -102 -121 -159
-146 -24 -11 -44 -25 -44 -32 0 -9 -2 -9 -8 -1 -4 8 -21 9 -47 5 -36 -6 -40
-9 -43 -40 -6 -56 0 -60 58 -45 104 27 217 104 271 184 46 68 52 124 48 458
-4 276 -2 306 13 315 25 16 66 -7 83 -46 21 -50 27 -153 16 -264 -10 -111 -1
-173 25 -173 22 0 64 48 87 100 25 55 34 195 18 269 -28 130 -134 274 -214
290 -36 8 -46 35 -27 72 10 18 18 21 50 16 21 -3 59 -19 85 -37z m-202 -1479
c10 -10 13 -69 4 -77 -11 -12 -223 -23 -440 -23 l-218 -1 3 53 3 52 100 3 c62
2 108 -2 122 -9 21 -11 58 -10 213 11 73 9 200 4 213 -9z"/>
</g>
</svg>
